<?xml version="1.0" encoding="UTF-8" standalone="no"?>
<!-- Created with Inkscape (http://www.inkscape.org/) -->

<svg
   xmlns:dc="http://purl.org/dc/elements/1.1/"
   xmlns:cc="http://creativecommons.org/ns#"
   xmlns:rdf="http://www.w3.org/1999/02/22-rdf-syntax-ns#"
   xmlns:svg="http://www.w3.org/2000/svg"
   xmlns="http://www.w3.org/2000/svg"
   xmlns:sodipodi="http://sodipodi.sourceforge.net/DTD/sodipodi-0.dtd"
   xmlns:inkscape="http://www.inkscape.org/namespaces/inkscape"
   width="128"
   height="128"
   viewBox="0 0 33.866666 33.866668"
   version="1.1"
   id="svg8"
   inkscape:version="0.92.3 (2405546, 2018-03-11)"
   sodipodi:docname="cloud.svg">
  <defs
     id="defs2" />
  <sodipodi:namedview
     id="base"
     pagecolor="#ffffff"
     bordercolor="#666666"
     borderopacity="1.0"
     inkscape:pageopacity="0.0"
     inkscape:pageshadow="2"
     inkscape:zoom="3.959798"
     inkscape:cx="-24.506199"
     inkscape:cy="50.019831"
     inkscape:document-units="mm"
     inkscape:current-layer="g847"
     showgrid="true"
     units="px"
     inkscape:pagecheckerboard="true"
     inkscape:snap-smooth-nodes="true"
     inkscape:snap-intersection-paths="true"
     inkscape:snap-others="true"
     inkscape:snap-grids="true"
     inkscape:object-paths="true"
     inkscape:window-width="1920"
     inkscape:window-height="1017"
     inkscape:window-x="1592"
     inkscape:window-y="-8"
     inkscape:window-maximized="1"
     showguides="false"
     inkscape:snap-object-midpoints="true"
     inkscape:snap-nodes="false"
     inkscape:snap-to-guides="false">
    <inkscape:grid
       type="xygrid"
       id="grid815"
       empspacing="8" />
  </sodipodi:namedview>
  <metadata
     id="metadata5">
    <rdf:RDF>
      <cc:Work
         rdf:about="">
        <dc:format>image/svg+xml</dc:format>
        <dc:type
           rdf:resource="http://purl.org/dc/dcmitype/StillImage" />
        <dc:title></dc:title>
      </cc:Work>
    </rdf:RDF>
  </metadata>
  <g
     inkscape:label="Layer 1"
     inkscape:groupmode="layer"
     id="layer1"
     transform="translate(0,-263.13332)"
     style="display:inline">
    <g
       id="g847">
      <g
         id="g885"
         transform="translate(2.6760589e-4,-2.116586)"
         style="display:inline">
        <path
           sodipodi:open="true"
           d="m 9.2860667,289.93119 a 8.4666662,8.4666662 0 0 1 -4.4207,-10.95769 8.4666662,8.4666662 0 0 1 10.8381423,-4.7062 8.4666662,8.4666662 0 0 1 4.988465,10.71115 8.4666662,8.4666662 0 0 1 -10.576818,5.26731"
           sodipodi:end="1.8810461"
           sodipodi:start="1.9858297"
           sodipodi:ry="8.4666662"
           sodipodi:rx="8.4666662"
           sodipodi:cy="282.18332"
           sodipodi:cx="12.7"
           sodipodi:type="arc"
           id="path881"
           style="opacity:1;fill:#ffffff;fill-opacity:1;stroke:#000000;stroke-width:0.52916664;stroke-linecap:round;stroke-linejoin:round;stroke-miterlimit:4;stroke-dasharray:none;stroke-dashoffset:0;stroke-opacity:1;paint-order:stroke markers fill" />
        <path
           inkscape:connector-curvature="0"
           id="path833"
           transform="matrix(0.26458333,0,0,0.26458333,0,263.13332)"
           d="M 88.1875,48 A 31.999998,31.999998 0 0 0 87.453125,48.0039 31.999998,31.999998 0 0 0 81.107422,48.751947 31.999998,31.999998 0 0 0 60.099609,64.382812 24,24 0 0 0 39.185547,70.875 24,24 0 0 0 32.630859,82.550781 15.999999,15.999999 0 0 0 22.646484,80.056641 15.999999,15.999999 0 0 0 8.4101562,92.402344 a 15.999999,15.999999 0 0 0 7.3886718,17.335936 15.999999,15.999999 0 0 0 8.191406,2.24219 L 24,112 H 55.9375 88 l 0.0059,-0.0156 A 31.999998,31.999998 0 0 0 113.31836,99.570312 31.999998,31.999998 0 0 0 115.02734,62.869141 31.999998,31.999998 0 0 0 88.1875,48 Z"
           style="display:inline;opacity:1;fill:#ffffff;fill-opacity:1;stroke:#000000;stroke-width:2;stroke-linecap:round;stroke-linejoin:round;stroke-miterlimit:4;stroke-dasharray:none;stroke-dashoffset:0;stroke-opacity:1;paint-order:stroke markers fill" />
      </g>
    </g>
  </g>
</svg>
