<?xml version="1.0" encoding="UTF-8" standalone="no"?>
<svg
   xmlns:dc="http://purl.org/dc/elements/1.1/"
   xmlns:cc="http://creativecommons.org/ns#"
   xmlns:rdf="http://www.w3.org/1999/02/22-rdf-syntax-ns#"
   xmlns:svg="http://www.w3.org/2000/svg"
   xmlns="http://www.w3.org/2000/svg"
   xmlns:sodipodi="http://sodipodi.sourceforge.net/DTD/sodipodi-0.dtd"
   xmlns:inkscape="http://www.inkscape.org/namespaces/inkscape"
   version="1.1"
   x="0px"
   y="0px"
   viewBox="-9 -9 50 50"
   enable-background="new -9 -9 50 50"
   xml:space="preserve"
   id="svg3745"
   sodipodi:docname="clock.svg"
   inkscape:version="0.92.3 (2405546, 2018-03-11)"><metadata
   id="metadata3751"><rdf:RDF><cc:Work
       rdf:about=""><dc:format>image/svg+xml</dc:format><dc:type
         rdf:resource="http://purl.org/dc/dcmitype/StillImage" /></cc:Work></rdf:RDF></metadata><defs
   id="defs3749" /><sodipodi:namedview
   pagecolor="#ffffff"
   bordercolor="#666666"
   borderopacity="1"
   objecttolerance="10"
   gridtolerance="10"
   guidetolerance="10"
   inkscape:pageopacity="0"
   inkscape:pageshadow="2"
   inkscape:window-width="1325"
   inkscape:window-height="709"
   id="namedview3747"
   showgrid="false"
   inkscape:zoom="6.675088"
   inkscape:cx="31.660774"
   inkscape:cy="16.205136"
   inkscape:window-x="2009"
   inkscape:window-y="210"
   inkscape:window-maximized="0"
   inkscape:current-layer="svg3745" />

    <path
   d="M 16.894,-2.529 C 16.596,-2.543 16.302,-2.574 16,-2.574 c -0.302,0 -0.596,0.031 -0.894,0.045 H 5.193 L -5.622,16 5.193,34.528 h 9.895 c 0.304,0.015 0.604,0.046 0.912,0.046 0.308,0 0.608,-0.031 0.912,-0.046 h 9.895 L 37.622,16 26.807,-2.529 Z"
   id="path3767"
   inkscape:connector-curvature="0"
   style="display:inline;fill:#000000" /><path
   d="m 25.176,30.502 -1.119,-1.939 c -0.191,-0.332 -0.617,-0.447 -0.95,-0.255 -0.332,0.192 -0.447,0.618 -0.255,0.95 l 1.124,1.947 c -2.131,1.122 -4.526,1.797 -7.064,1.931 h -0.216 v -2.228 c 0,-0.384 -0.312,-0.696 -0.696,-0.696 -0.384,0 -0.696,0.312 -0.696,0.696 v 2.228 H 15.088 C 12.55,33.002 10.155,32.328 8.024,31.205 L 9.148,29.258 C 9.34,28.926 9.226,28.5 8.893,28.308 8.559,28.115 8.135,28.231 7.943,28.563 L 6.824,30.502 C 4.679,29.14 2.86,27.32 1.498,25.176 L 3.437,24.057 C 3.769,23.865 3.884,23.439 3.692,23.107 3.501,22.775 3.076,22.66 2.742,22.852 l -1.947,1.124 c -1.154,-2.192 -1.836,-4.662 -1.942,-7.281 h 2.239 c 0.384,0 0.696,-0.312 0.696,-0.696 0,-0.384 -0.312,-0.696 -0.696,-0.696 H -1.147 C -1.041,12.684 -0.36,10.214 0.795,8.022 L 2.742,9.146 C 2.85,9.211 2.97,9.241 3.088,9.241 3.329,9.241 3.563,9.116 3.691,8.893 3.883,8.56 3.769,8.135 3.436,7.943 L 1.497,6.823 C 2.859,4.678 4.678,2.859 6.823,1.497 l 1.119,1.939 c 0.129,0.223 0.362,0.348 0.603,0.348 0.118,0 0.237,-0.03 0.347,-0.093 C 9.225,3.499 9.34,3.073 9.148,2.74 L 8.024,0.794 c 2.136,-1.125 4.537,-1.8 7.082,-1.931 h 0.198 v 2.229 c 0,0.384 0.312,0.696 0.696,0.696 0.384,0 0.696,-0.312 0.696,-0.696 v -2.229 h 0.198 c 2.545,0.132 4.946,0.807 7.082,1.931 L 22.852,2.74 c -0.192,0.333 -0.078,0.758 0.255,0.95 0.11,0.063 0.229,0.093 0.347,0.093 0.241,0 0.475,-0.125 0.603,-0.348 l 1.119,-1.939 c 2.145,1.362 3.964,3.181 5.326,5.326 l -1.939,1.119 c -0.332,0.192 -0.447,0.617 -0.255,0.95 0.129,0.223 0.362,0.348 0.603,0.348 0.118,0 0.237,-0.03 0.347,-0.093 l 1.947,-1.124 c 1.154,2.191 1.836,4.662 1.942,7.281 h -2.239 c -0.384,0 -0.696,0.312 -0.696,0.696 0,0.384 0.312,0.696 0.696,0.696 h 2.239 c -0.106,2.619 -0.787,5.089 -1.942,7.281 l -1.947,-1.124 c -0.333,-0.193 -0.759,-0.078 -0.95,0.255 -0.192,0.332 -0.078,0.758 0.255,0.95 l 1.939,1.119 c -1.361,2.145 -3.181,3.964 -5.326,5.326 z"
   id="path3763"
   inkscape:connector-curvature="0"
   style="display:inline;fill:#ffffff;stroke:#000100;stroke-opacity:1;fill-opacity:1" /><path
   d="m 23.458,18.099 -6.799,-2.83 -5.32,-9.774 C 11.095,5.045 10.531,4.879 10.082,5.124 9.631,5.369 9.465,5.932 9.71,6.382 l 5.476,10.061 c 0.101,0.186 0.263,0.332 0.457,0.413 l 7.101,2.956 c 0.117,0.049 0.237,0.072 0.357,0.072 0.363,0 0.708,-0.215 0.856,-0.571 0.197,-0.474 -0.027,-1.017 -0.499,-1.214 z"
   id="path3741"
   inkscape:connector-curvature="0"
   style="display:inline" />
    <g
   id="g3777"
   style="display:none"><path
     style="display:inline"
     inkscape:connector-curvature="0"
     id="path3765"
     d="M 26.008,-1.138 27.524,1.46 C 26.199,0.408 24.735,-0.475 23.153,-1.138 Z" /><path
     style="display:inline"
     inkscape:connector-curvature="0"
     id="path3761"
     d="M 5.992,-1.138 H 8.846 C 7.264,-0.475 5.8,0.408 4.475,1.46 Z" /><path
     style="display:inline"
     inkscape:connector-curvature="0"
     id="path3759"
     d="m -2.327,13.115 c -0.148,0.942 -0.248,1.901 -0.248,2.885 0,0.984 0.099,1.942 0.247,2.885 L -4.011,16 Z" /><path
     style="display:inline"
     inkscape:connector-curvature="0"
     id="path3757"
     d="M 5.992,33.137 4.476,30.54 c 1.324,1.051 2.787,1.934 4.367,2.596 H 5.992 Z" /><path
     style="display:inline"
     inkscape:connector-curvature="0"
     id="path3755"
     d="m 26.008,33.137 h -2.852 c 1.58,-0.662 3.044,-1.545 4.367,-2.596 z" /><path
     style="display:inline"
     inkscape:connector-curvature="0"
     id="path3743"
     d="m 34.327,18.885 c 0.148,-0.943 0.247,-1.901 0.247,-2.885 0,-0.984 -0.099,-1.942 -0.247,-2.885 L 36.011,16 Z" /></g>
<!--
    <text x="-9" y="56" fill="#000000" font-size="4px" font-weight="bold" font-family="'Helvetica Neue', Helvetica, Arial-Unicode, Arial, Sans-serif">jonata hangga will putra march stanly</text>
    <text x="-9" y="60" fill="#000000" font-size="4px" font-weight="bold" font-family="'Helvetica Neue', Helvetica, Arial-Unicode, Arial, Sans-serif">from the Noun Project</text>
-->
</svg>