<?xml version="1.0" encoding="UTF-8" standalone="no"?>
<!-- Created with Inkscape (http://www.inkscape.org/) -->

<svg
   xmlns:dc="http://purl.org/dc/elements/1.1/"
   xmlns:cc="http://creativecommons.org/ns#"
   xmlns:rdf="http://www.w3.org/1999/02/22-rdf-syntax-ns#"
   xmlns:svg="http://www.w3.org/2000/svg"
   xmlns="http://www.w3.org/2000/svg"
   xmlns:sodipodi="http://sodipodi.sourceforge.net/DTD/sodipodi-0.dtd"
   xmlns:inkscape="http://www.inkscape.org/namespaces/inkscape"
   width="128"
   height="128"
   viewBox="0 0 33.866666 33.866668"
   version="1.1"
   id="svg8"
   inkscape:version="0.92.3 (2405546, 2018-03-11)"
   sodipodi:docname="gear.svg">
  <sodipodi:namedview
     id="base"
     pagecolor="#ffffff"
     bordercolor="#666666"
     borderopacity="1.0"
     inkscape:pageopacity="0.0"
     inkscape:pageshadow="2"
     inkscape:zoom="5.6"
     inkscape:cx="51.755552"
     inkscape:cy="57.298046"
     inkscape:document-units="mm"
     inkscape:current-layer="g1311"
     showgrid="true"
     units="px"
     inkscape:window-width="1920"
     inkscape:window-height="1017"
     inkscape:window-x="1592"
     inkscape:window-y="-8"
     inkscape:window-maximized="1"
     inkscape:snap-object-midpoints="true"
     inkscape:snap-others="true"
     inkscape:snap-nodes="false"
     inkscape:snap-global="true"
     inkscape:snap-grids="true"
     inkscape:snap-to-guides="false">
    <inkscape:grid
       type="xygrid"
       id="grid815"
       empspacing="8" />
  </sodipodi:namedview>
  <defs
     id="defs2" />
  <metadata
     id="metadata5">
    <rdf:RDF>
      <cc:Work
         rdf:about="">
        <dc:format>image/svg+xml</dc:format>
        <dc:type
           rdf:resource="http://purl.org/dc/dcmitype/StillImage" />
        <dc:title></dc:title>
      </cc:Work>
    </rdf:RDF>
  </metadata>
  <g
     inkscape:label="Layer 1"
     inkscape:groupmode="layer"
     id="layer1"
     transform="translate(0,-263.13332)">
    <g
       id="g1311"
       inkscape:label="Gear7"
       transform="matrix(-1.0892169,0.87418901,-0.87418901,-1.0892169,16.402967,280.05647)"
       style="fill:#ffffff;fill-opacity:1;stroke-width:0.71600473">
      <path
         id="path1307"
         style="fill:#ffffff;fill-opacity:1;stroke:#000000;stroke-width:0.18944292"
         d="m 6.15556,-1.41659 2.33131,-0.53651 0.13446,-0.01466 2.70712,1.00098 V 0.96678 L 8.62133,1.96776 8.48687,1.9531 6.15556,1.41659 4.94547,3.92938 6.81847,5.41756 6.91377,5.51355 7.81904,8.25416 6.30731,9.45972 3.83685,7.96731 3.76448,7.85303 2.7304,5.69584 0.01133,6.31645 0.01562,8.70869 0,8.84305 -1.57827,11.25955 -3.46336,10.8293 -3.83685,7.96731 -3.79263,7.83948 -2.75082,5.68601 -4.93134,3.9471 -6.79898,5.44199 -6.91377,5.51355 -9.78711,5.78627 -10.62605,4.04419 -8.62133,1.96776 -8.49382,1.92263 -6.16061,1.39449 v -2.78898 l -2.33321,-0.52814 -0.12751,-0.04513 -2.00472,-2.07643 0.83894,-1.74208 2.87334,0.27272 0.11479,0.07156 1.86764,1.49489 2.18052,-1.73891 -1.04181,-2.15347 -0.04422,-0.12783 0.37349,-2.86199 1.88509,-0.43025 1.57827,2.4165 0.01562,0.13436 -0.00429,2.39224 2.71907,0.62061 1.03408,-2.15719 0.07237,-0.11428 2.47046,-1.49241 1.51173,1.20556 -0.90527,2.74061 -0.0953,0.09599 -1.873,1.48818 z"
         inkscape:connector-curvature="0" />
      <circle
         id="path1309"
         style="fill:#000000;fill-opacity:1;stroke:#000000;stroke-width:0.18944292"
         cx="0"
         cy="0"
         r="1.3229166" />
    </g>
  </g>
</svg>
